<?xml version="1.0" encoding="UTF-8"?>
<svg width="100px" height="100px" viewBox="0 0 100 100" version="1.1" xmlns="http://www.w3.org/2000/svg" xmlns:xlink="http://www.w3.org/1999/xlink">
    <!-- Generator: sketchtool 55.2 (78181) - https://sketchapp.com -->
    <title>2614A233-0E7B-4E6A-ACC7-171CD7787B25</title>
    <desc>Created with sketchtool.</desc>
    <g id="Settings" stroke="none" stroke-width="1" fill="none" fill-rule="evenodd">
        <g id="9c-Settings-Payment-Details" transform="translate(-226.000000, -621.000000)">
            <g id="Lightbox-Copy" transform="translate(50.000000, 462.000000)">
                <g id="chip&amp;pin" transform="translate(176.000000, 159.000000)">
                    <path d="M49.999994,0 C77.6142282,-5.07265253e-15 99.9999881,22.3857598 99.9999881,49.999994 C99.9999881,77.6142282 77.6142282,99.9999881 49.999994,99.9999881 C22.3857598,99.9999881 3.38176835e-15,77.6142282 0,49.999994 C-3.38176835e-15,22.3857598 22.3857598,5.07265253e-15 49.999994,0 Z" id="Rectangle" fill="#F7F7F7"></path>
                    <g id="Group" transform="translate(19.999998, 33.999996)" fill-rule="nonzero">
                        <path d="M34.4180444,24.2992646 L24.6764486,24.2992646 L22.0434535,21.1438194 L22.0434535,15.9964382 L34.4180444,15.9964382 L34.4180444,24.2992646 Z M24.6538886,24.303463 L34.4180444,24.303463 L34.4180444,26.4640123 C34.4180444,29.8207609 31.6463698,32.5368407 28.2316869,32.5368407 L16.9492338,32.5368407 L16.9492338,20.3941235 L21.397685,20.3941235 L24.6538886,24.303463 Z M34.4184196,15.99077 L22.0434535,15.99077 L22.0434535,10.841184 L24.6764486,7.68573884 L34.4184196,7.68573884 L34.4184196,15.99077 Z M11.8238406,15.9964382 L11.8238406,21.1434364 L9.19048709,24.2996321 L-0.549999946,24.2996321 L-0.549999946,15.9964382 L11.8238406,15.9964382 Z M9.21319078,7.68264286 L-0.549999946,7.68264286 L-0.549999946,5.51952137 C-0.549999946,2.16496127 2.22206195,-0.549999946 5.63673272,-0.549999946 L16.9188106,-0.549999946 L16.9188106,11.5908799 L12.4716455,11.5908799 L9.21319078,7.68264286 Z M-0.549999946,7.68573884 L9.19046549,7.68573884 L11.8238406,10.841547 L11.8238406,15.99077 L-0.549999946,15.99077 L-0.549999946,7.68573884 Z M24.6538421,7.68264286 L21.3976384,11.5908799 L21.1399988,11.5908799 L20.90217,11.5908799 L16.9492338,11.5904531 L16.9492338,-0.549999946 L28.2320621,-0.549999946 C31.646046,-0.549999946 34.4184196,2.16539132 34.4184196,5.51952137 L34.4184196,7.68264286 L24.6538421,7.68264286 Z M9.21314427,24.303463 L12.471599,20.3941235 L16.9184355,20.3941235 L16.9184355,32.5368407 L5.63635754,32.5368407 C2.22167464,32.5368407 -0.549999946,29.8207609 -0.549999946,26.4640123 L-0.549999946,24.303463 L9.21314427,24.303463 Z" id="Shape" stroke="#333743" stroke-width="1.09999989" fill="#FFFFFF"></path>
                        <path d="M64.480142,8.68584399 C66.8029941,15.3312485 66.4862416,22.4100489 63.3715081,28.9591432 C61.8405374,32.2818454 60.7319035,33.3412577 59.2009328,32.9078618 C58.1978831,32.6189311 57.4060017,31.4632086 57.7227542,30.5964167 C57.8283384,30.3556412 58.3034672,29.3925391 58.8313882,28.429437 C61.048656,24.288098 61.9989137,19.8578283 61.5237849,15.5238689 C61.1542402,11.912236 60.467943,9.64894609 58.6730119,6.37439896 C57.5115859,4.15926413 57.4587938,3.8221784 58.145091,2.90723141 C58.8313882,2.08859462 60.467943,1.94412931 61.3126165,2.66645588 C61.8933295,3.14800693 63.7410528,6.66332959 64.480142,8.68584399 Z M51.7044557,6.03731322 C52.8658817,6.03731322 53.4993868,6.56701938 54.5024366,8.54137868 C56.1389915,11.5751503 56.7724966,14.2236811 56.7724966,17.5945384 C56.7724966,21.061706 56.1389915,23.4213061 54.3968524,26.6476981 C53.3938027,28.4775921 52.9186738,28.9591432 51.9156241,29.1036085 C51.6516636,29.1517636 51.1237427,29.0554534 50.8597822,28.9591432 C50.2262771,28.7183676 49.6983562,28.0923513 49.5399799,27.4663349 C49.4871878,27.0810941 49.6455641,26.6476981 50.3846534,25.2512001 C53.1826343,20.0986039 53.2354264,15.1386281 50.4902376,10.082342 C49.2760195,7.86720721 49.2760195,7.43381127 50.2790692,6.56701938 C50.8069901,6.13362343 51.0181585,6.03731322 51.7044557,6.03731322 Z M43.6272656,9.64894609 C44.6303153,9.50448078 45.3166125,9.88972162 46.2668702,11.1899095 C48.9592669,14.9941627 48.9592669,20.0986039 46.2668702,23.9028571 C45.3166125,25.2512001 44.2607707,25.7327511 43.1521368,25.2993552 C42.6242158,25.1067348 42.0435028,24.4807184 41.8851265,23.9510123 C41.6739582,23.373151 41.8323344,22.8915999 42.6242158,21.7358774 C43.6272656,20.2430692 43.838434,19.4725875 43.838434,17.5463833 C43.838434,15.6201791 43.6272656,14.8496974 42.6242158,13.3568892 C42.3074633,12.827183 41.9379186,12.2493218 41.8851265,12.0085462 C41.568374,11.0454441 42.4130475,9.84156651 43.6272656,9.64894609 Z" id="Path-2" fill="#F3B53A"></path>
                    </g>
                </g>
            </g>
        </g>
    </g>
</svg>